<?xml version="1.0" encoding="UTF-8" standalone="no"?>
<svg width="60px" height="60px" viewBox="0 0 60 60" version="1.1" xmlns="http://www.w3.org/2000/svg" xmlns:xlink="http://www.w3.org/1999/xlink" xmlns:sketch="http://www.bohemiancoding.com/sketch/ns">
    <!-- Generator: Sketch 3.2.2 (9983) - http://www.bohemiancoding.com/sketch -->
    <title>Basketball</title>
    <desc>Created with Sketch.</desc>
    <defs></defs>
    <g id="stroked" stroke="none" stroke-width="1" fill="none" fill-rule="evenodd" sketch:type="MSPage">
        <g id="Activities" sketch:type="MSLayerGroup" transform="translate(-374.000000, 2.000000)" stroke="#000000" stroke-width="2" stroke-linecap="round" stroke-linejoin="round">
            <g id="Basketball" transform="translate(378.000000, 2.000000)" sketch:type="MSShapeGroup">
                <circle id="Oval-788" cx="26.5" cy="26.5" r="26.5"></circle>
                <path d="M15,2.5 C15,11.0604136 25.9690236,18 39.5,18 C43.4676761,18 47.2150671,17.4033114 50.530207,16.344035" id="Oval-789"></path>
                <path d="M3,34 C3,42.5604136 13.9690236,49.5 27.5,49.5 C31.4676761,49.5 35.2150671,48.9033114 38.530207,47.844035" id="Oval-789" transform="translate(20.765104, 41.750000) scale(-1, -1) translate(-20.765104, -41.750000) "></path>
                <path d="M52.9606469,26.9443873 C44.9058937,25.7026749 35.7329137,25 26,25 C16.7337521,25 7.97503082,25.6369078 0.205612107,26.7695131" id="Oval-790" transform="translate(26.583129, 25.972194) rotate(17.000000) translate(-26.583129, -25.972194) "></path>
                <path d="M34.3053504,1.73501753 C26.9305496,9.25427019 22.2257183,20.6669499 22.2257183,33.4448951 C22.2257183,40.6337941 23.7148969,47.3905578 26.3308951,53.2649825" id="Oval-789" transform="translate(28.265534, 27.500000) rotate(8.000000) translate(-28.265534, -27.500000) "></path>
            </g>
        </g>
    </g>
</svg>